<svg width="47" height="38" viewBox="0 0 47 38" fill="none" xmlns="http://www.w3.org/2000/svg">
<path d="M24.3874 21.3658C24.4739 19.8064 25.2361 18.4341 26.3887 17.4592C27.5988 16.4526 29.1257 15.9061 30.6998 15.9162C32.3597 15.9162 33.8793 16.5006 35.0132 17.4592C36.1634 18.4341 36.9279 19.8087 37.0144 21.3658C37.1033 22.9696 36.4603 24.4588 35.3288 25.5623C34.0833 26.7506 32.4235 27.4065 30.7021 27.3906C28.9791 27.4075 27.3176 26.7515 26.0707 25.5623C24.9415 24.4588 24.2963 22.9696 24.3874 21.3658Z" fill="#FFD02A"/>
<path d="M14.3273 24.5219C14.339 25.1298 14.5354 26.3151 14.8253 27.2432C15.4569 29.2393 16.5165 31.0736 17.93 32.618C19.4452 34.2856 21.296 35.6138 23.3609 36.5153C25.6069 37.5062 28.0367 38.012 30.4915 37.9999C32.9486 38.0029 35.3788 37.4891 37.6245 36.4919C39.6866 35.5795 41.535 34.2455 43.0507 32.576C44.4613 31.0266 45.519 29.1896 46.1508 27.1918C46.4591 26.2159 46.6552 25.2079 46.7352 24.1876C46.9556 21.2372 46.2283 18.2935 44.6592 15.7852C43.7015 14.2538 42.4783 12.9055 41.0471 11.8038L41.0495 11.8014L26.44 0.581847L26.4025 0.549116C25.4417 -0.184983 23.8285 -0.182645 22.7765 0.553793C21.708 1.29958 21.5888 2.53165 22.5333 3.31251L22.531 3.31485L28.6235 8.27353L10.0536 8.29457H10.0256C8.49192 8.29457 7.0167 9.30454 6.72447 10.5764C6.42522 11.8739 7.46792 12.9493 9.0647 12.954L9.06236 12.961L18.4771 12.9423L1.67227 25.8381L1.60915 25.8872C0.0263921 27.1006 -0.485607 29.1182 0.510337 30.397C1.52498 31.6969 3.67585 31.6969 5.27965 30.4017L14.4489 22.8994C14.4512 22.8994 14.318 23.9117 14.3273 24.5219ZM37.8886 27.9119C35.9996 29.8383 33.3578 30.9301 30.4939 30.9348C27.6276 30.9394 24.9858 29.857 23.0944 27.9352C22.2003 27.0402 21.5111 25.9618 21.0745 24.7744C20.662 23.6453 20.5032 22.4392 20.6092 21.2418C20.7121 20.0612 21.0604 18.9343 21.6239 17.9174C22.1756 16.9144 22.9378 16.012 23.8729 15.2428C25.7487 13.7345 28.087 12.9187 30.4939 12.933C32.8985 12.9136 35.2364 13.7227 37.1148 15.2241C38.0476 15.9862 38.8098 16.8863 39.3615 17.887C39.9226 18.9063 40.2733 20.0285 40.3762 21.2091C40.4817 22.4063 40.3237 23.6121 39.9133 24.7417C39.4721 25.9307 38.7818 27.0116 37.8886 27.9119Z" fill="#FFD02A"/>
</svg>
