<svg width="33" height="37" viewBox="0 0 33 37" fill="none" xmlns="http://www.w3.org/2000/svg">
<path d="M0 0H33L31.199 31.4913L16.5025 37L1.80262 31.4913L0 0ZM3.47567 3.27898L4.95517 29.1698L16.5025 33.4981L28.0465 29.1698L29.5243 3.27898H3.47567ZM5.80973 6.55796H26.8819L26.7048 9.65168L14.7474 15.3735H26.3767L25.7141 26.9876L16.4992 30.442L7.28431 26.9876L7.09732 23.7185V23.7119L6.9743 21.433H10.2712L10.3729 23.5382L10.4385 24.6694L16.4992 26.9385L22.5615 24.6661L22.906 18.6492H6.80536L6.63149 15.6194L18.7217 9.83694H16.4992L6.23948 9.85661L5.80973 6.55796Z" fill="#FFD02A"/>
</svg>
