<svg width="37" height="38" viewBox="0 0 37 38" fill="none" xmlns="http://www.w3.org/2000/svg">
<path d="M0 0V38H37V0H0ZM20.1359 29.6359C20.1359 33.3341 18.0216 35.0224 14.9414 35.0224C12.1585 35.0224 10.5476 33.5472 9.72175 31.7571L12.5549 30.001C13.1006 30.9931 13.5962 31.8331 14.7934 31.8331C15.9325 31.8331 16.6593 31.3744 16.6593 29.5857V17.4474H20.1359V29.6359ZM28.3605 35.0224C25.1309 35.0224 23.0417 33.4454 22.0256 31.3744L24.8587 29.6956C25.6027 30.9429 26.5766 31.8671 28.2865 31.8671C29.7229 31.8671 30.6492 31.1288 30.6492 30.1028C30.6492 28.8814 29.707 28.4484 28.1134 27.7278L27.2465 27.3464C24.7358 26.2526 23.0761 24.8696 23.0761 21.9599C23.0761 19.2796 25.0662 17.2439 28.1636 17.2439C30.377 17.2439 31.9627 18.0324 33.1031 20.102L30.3942 21.8839C29.7995 20.7901 29.1547 20.3571 28.1557 20.3571C27.1408 20.3571 26.496 21.0194 26.496 21.8839C26.496 22.9534 27.1408 23.3849 28.6354 24.0554L29.5022 24.4367C32.4596 25.7341 34.1193 27.0669 34.1193 30.0512C34.1193 33.2581 31.6575 35.0211 28.3618 35.0211L28.3605 35.0224Z" fill="#FFD02A"/>
</svg>
