<svg id="Livello_1" data-name="Livello 1" xmlns="http://www.w3.org/2000/svg" viewBox="0 0 383.32 269.64"><defs><style>.cls-1{fill:#fff;}</style></defs><path class="cls-1" d="M106,315.74l3.09-9.53L224.89,421,109,535.81c-.78-2.32-1.88-5.62-3-8.91Z" transform="translate(-106 -286.51)"/><path class="cls-1" d="M126.24,288.66c5-.71,10-2,14.94-2,29.07-.19,58.14-.1,87.2-.1q112.47,0,224.93,0c5.5,0,10.85.57,16.55,3.45-5.79,5.66-11.26,10.91-16.62,16.28Q380.69,379,308.16,451.77c-6.78,6.8-14.18,6.82-20.91.07L128.45,292.52c-.78-.78-1.52-1.6-2.28-2.4Z" transform="translate(-106 -286.51)"/><path class="cls-1" d="M126.1,552.5,241.66,438.09c.37.35,1.36,1.23,2.3,2.17,9.25,9.28,18.46,18.58,27.74,27.83,15.18,15.14,36.76,15.1,52,0l30-29.81L470,553.37c-4.54,1-8.34,1.91-12.19,2.61a27,27,0,0,1-4.85.12q-155.28,0-310.57-.08c-5.35,0-10.71-1.26-16.07-1.93Z" transform="translate(-106 -286.51)"/><path class="cls-1" d="M486.71,306.32c.82,4.21,2.47,8.77,2.48,13.33q.26,101.58,0,203.17c0,4.6-1.63,9.19-2.47,13.62L370.6,421.27Z" transform="translate(-106 -286.51)"/></svg>