<svg id="Livello_1" data-name="Livello 1" xmlns="http://www.w3.org/2000/svg" viewBox="0 0 419.7 413.09"><path d="M337.23,520.76c11.22-2.59,22.07-4.48,32.55-7.63,34.82-10.49,54.26-34.62,60.16-70,3-17.86,3.88-35.78-1.48-53.47a74.67,74.67,0,0,0-14.89-27.46c-2.08-2.42-2.62-4.38-1.66-7.54,5-16.56,3.42-33-2.37-49-.57-1.6-3.42-3.65-4.92-3.44-7,1-14.4,1.7-20.83,4.41-10.22,4.31-19.74,10.26-29.69,15.24a11.67,11.67,0,0,1-7.27,1.23,207,207,0,0,0-97-.09,11.3,11.3,0,0,1-7.7-1.26c-14-8.6-28-16.73-44.57-19.33-8.94-1.4-9.9-.9-12.36,7.65-4.37,15.2-5.15,30.45-.54,45.8a6.1,6.1,0,0,1-.86,4.87c-18.85,22.39-22.07,48.48-18.36,76.26,2.37,17.77,7.49,34.49,18.82,48.77,14.34,18.07,34,26.66,55.92,31.23,6.11,1.28,12.3,2.14,19.06,3.29-7,7.6-10.55,16.24-12.37,25.73-.26,1.39-2,3-3.39,3.6-23.28,10-44.19,3.29-57.73-18.38-7-11.19-16.22-19.42-29.64-21.77a21.34,21.34,0,0,0-7.88.28c-5.36,1.15-6,4-2.1,7.94a23.29,23.29,0,0,0,4.64,3.77,48,48,0,0,1,21.83,26.5c8.13,24.47,32.09,35,57.74,32.55,4.93-.48,9.83-1.19,15.51-1.89,0,13.72.35,27-.14,40.3-.28,7.43-7.31,10.84-15.42,8.1a190.14,190.14,0,0,1-51-25.9c-62.19-45.11-93-106.37-90.89-183,2.72-98.65,75.9-182.43,172.94-199.9C374.15,197.85,482.59,273,504.16,386.37c19.64,103.27-38.4,205.24-136.6,240-11.74,4.15-17.55,0-17.49-12.51q.12-26.26.3-52.51C350.49,546.33,348.07,532.14,337.23,520.76Z" transform="translate(-88.26 -214.85)" style="fill:#fff"/></svg>