<svg id="Livello_1" data-name="Livello 1" xmlns="http://www.w3.org/2000/svg" viewBox="0 0 304.77 304.77"><defs><style>.cls-1{fill:#fff;}</style></defs><path class="cls-1" d="M450.61,294.7V546.1a10.47,10.47,0,0,0-.74,2.19c-1,9.27-5.74,16-13.68,20.71-4.87,2.88-10.26,3.63-15.73,3.63q-122.26.07-244.52,0c-6.85,0-13.36-1.31-19-5.61-8.12-6.19-11.09-14.66-11.09-24.47q0-119.43,0-238.86c0-3.66.24-7.32.5-11,.82-11.86,9.91-21.35,21.48-23.93,1.51-.34,3-.6,4.56-.9H423.8a12.06,12.06,0,0,0,2.47.75c11.32,1,21.84,10.77,23.5,21.81C450,291.88,450.33,293.28,450.61,294.7ZM313.22,397.92c0-3.15,0-6.19,0-9.24,0-5.9-3.09-9-8.91-9q-16.38,0-32.76,0c-6.25,0-9.37,3.06-9.37,9.24q0,70.74,0,141.48c0,6.09,3.27,9.34,9.38,9.36q16.08,0,32.16,0c6.39,0,9.5-3.11,9.5-9.45q0-36,0-72.08a51.3,51.3,0,0,1,5.12-22.68c4.88-10.13,14.16-15.35,25.46-14.26,10.74,1,18,7.15,20.78,18.26a74.52,74.52,0,0,1,2.25,17c.24,24.42.09,48.85.1,73.27,0,7.25,2.74,9.94,10.1,9.94h32.47c6.28,0,9.62-3.18,9.59-9.49-.11-28.88-.12-57.77-.57-86.65a94.59,94.59,0,0,0-6.4-34c-5.43-13.53-14.37-23.66-28.37-28.67-11.85-4.24-24.07-4.5-36.39-2.81-13.8,1.9-25.18,8-33.42,19.49C313.84,397.75,313.61,397.76,313.22,397.92ZM189.44,459.69q0,34.83,0,69.66c0,7.36,3.06,10.38,10.52,10.38h29.48c7.92,0,11-3.07,11-10.94V390.66c0-.7,0-1.39,0-2.09-.29-5.63-3.69-8.9-9.35-8.91q-15.93,0-31.85,0c-6.71,0-9.81,3.1-9.81,9.78Q189.44,424.56,189.44,459.69Zm58.24-125.62a32.83,32.83,0,1,0-65.66-.19c.09,18.86,14.75,32.82,32.9,33C232.9,367,247.66,352,247.68,334.07Z" transform="translate(-145.84 -267.89)"/></svg>